<svg xmlns="http://www.w3.org/2000/svg" xmlns:xlink="http://www.w3.org/1999/xlink" version="1.1" class="marks" width="1076" height="467" viewBox="0 0 1076 467"><rect width="1076" height="467" fill="white"/><g fill="none" stroke-miterlimit="10" transform="translate(45,10)"><g class="mark-group role-frame root" role="graphics-object" aria-roledescription="group mark container"><g transform="translate(0,0)"><path class="background" aria-hidden="true" d="M0.5,0.5h900v420h-900Z" stroke="#ddd"/><g><g class="mark-group role-axis" aria-hidden="true"><g transform="translate(0.5,420.5)"><path class="background" aria-hidden="true" d="M0,0h0v0h0Z" pointer-events="none"/><g><g class="mark-rule role-axis-grid" pointer-events="none"><line transform="translate(0,-420)" x2="0" y2="420" stroke="#ddd" stroke-width="1" opacity="1"/><line transform="translate(41,-420)" x2="0" y2="420" stroke="#ddd" stroke-width="1" opacity="1"/><line transform="translate(82,-420)" x2="0" y2="420" stroke="#ddd" stroke-width="1" opacity="1"/><line transform="translate(123,-420)" x2="0" y2="420" stroke="#ddd" stroke-width="1" opacity="1"/><line transform="translate(164,-420)" x2="0" y2="420" stroke="#ddd" stroke-width="1" opacity="1"/><line transform="translate(205,-420)" x2="0" y2="420" stroke="#ddd" stroke-width="1" opacity="1"/><line transform="translate(245,-420)" x2="0" y2="420" stroke="#ddd" stroke-width="1" opacity="1"/><line transform="translate(286,-420)" x2="0" y2="420" stroke="#ddd" stroke-width="1" opacity="1"/><line transform="translate(327,-420)" x2="0" y2="420" stroke="#ddd" stroke-width="1" opacity="1"/><line transform="translate(368,-420)" x2="0" y2="420" stroke="#ddd" stroke-width="1" opacity="1"/><line transform="translate(409,-420)" x2="0" y2="420" stroke="#ddd" stroke-width="1" opacity="1"/><line transform="translate(450,-420)" x2="0" y2="420" stroke="#ddd" stroke-width="1" opacity="1"/><line transform="translate(491,-420)" x2="0" y2="420" stroke="#ddd" stroke-width="1" opacity="1"/><line transform="translate(532,-420)" x2="0" y2="420" stroke="#ddd" stroke-width="1" opacity="1"/><line transform="translate(573,-420)" x2="0" y2="420" stroke="#ddd" stroke-width="1" opacity="1"/><line transform="translate(614,-420)" x2="0" y2="420" stroke="#ddd" stroke-width="1" opacity="1"/><line transform="translate(655,-420)" x2="0" y2="420" stroke="#ddd" stroke-width="1" opacity="1"/><line transform="translate(695,-420)" x2="0" y2="420" stroke="#ddd" stroke-width="1" opacity="1"/><line transform="translate(736,-420)" x2="0" y2="420" stroke="#ddd" stroke-width="1" opacity="1"/><line transform="translate(777,-420)" x2="0" y2="420" stroke="#ddd" stroke-width="1" opacity="1"/><line transform="translate(818,-420)" x2="0" y2="420" stroke="#ddd" stroke-width="1" opacity="1"/><line transform="translate(859,-420)" x2="0" y2="420" stroke="#ddd" stroke-width="1" opacity="1"/><line transform="translate(900,-420)" x2="0" y2="420" stroke="#ddd" stroke-width="1" opacity="1"/></g></g><path class="foreground" aria-hidden="true" d="" pointer-events="none" display="none"/></g></g><g class="mark-group role-axis" aria-hidden="true"><g transform="translate(0.5,0.5)"><path class="background" aria-hidden="true" d="M0,0h0v0h0Z" pointer-events="none"/><g><g class="mark-rule role-axis-grid" pointer-events="none"><line transform="translate(0,420)" x2="900" y2="0" stroke="#ddd" stroke-width="1" opacity="1"/><line transform="translate(0,378)" x2="900" y2="0" stroke="#ddd" stroke-width="1" opacity="1"/><line transform="translate(0,336)" x2="900" y2="0" stroke="#ddd" stroke-width="1" opacity="1"/><line transform="translate(0,294)" x2="900" y2="0" stroke="#ddd" stroke-width="1" opacity="1"/><line transform="translate(0,252)" x2="900" y2="0" stroke="#ddd" stroke-width="1" opacity="1"/><line transform="translate(0,210)" x2="900" y2="0" stroke="#ddd" stroke-width="1" opacity="1"/><line transform="translate(0,168)" x2="900" y2="0" stroke="#ddd" stroke-width="1" opacity="1"/><line transform="translate(0,126)" x2="900" y2="0" stroke="#ddd" stroke-width="1" opacity="1"/><line transform="translate(0,84)" x2="900" y2="0" stroke="#ddd" stroke-width="1" opacity="1"/><line transform="translate(0,42)" x2="900" y2="0" stroke="#ddd" stroke-width="1" opacity="1"/><line transform="translate(0,0)" x2="900" y2="0" stroke="#ddd" stroke-width="1" opacity="1"/></g></g><path class="foreground" aria-hidden="true" d="" pointer-events="none" display="none"/></g></g><g class="mark-group role-axis" role="graphics-symbol" aria-roledescription="axis" aria-label="X-axis titled 'Year' for a linear scale with values from 1,800 to 2,020"><g transform="translate(0.5,420.5)"><path class="background" aria-hidden="true" d="M0,0h0v0h0Z" pointer-events="none"/><g><g class="mark-rule role-axis-tick" pointer-events="none"><line transform="translate(0,0)" x2="0" y2="5" stroke="#888" stroke-width="1" opacity="1"/><line transform="translate(41,0)" x2="0" y2="5" stroke="#888" stroke-width="1" opacity="1"/><line transform="translate(82,0)" x2="0" y2="5" stroke="#888" stroke-width="1" opacity="1"/><line transform="translate(123,0)" x2="0" y2="5" stroke="#888" stroke-width="1" opacity="1"/><line transform="translate(164,0)" x2="0" y2="5" stroke="#888" stroke-width="1" opacity="1"/><line transform="translate(205,0)" x2="0" y2="5" stroke="#888" stroke-width="1" opacity="1"/><line transform="translate(245,0)" x2="0" y2="5" stroke="#888" stroke-width="1" opacity="1"/><line transform="translate(286,0)" x2="0" y2="5" stroke="#888" stroke-width="1" opacity="1"/><line transform="translate(327,0)" x2="0" y2="5" stroke="#888" stroke-width="1" opacity="1"/><line transform="translate(368,0)" x2="0" y2="5" stroke="#888" stroke-width="1" opacity="1"/><line transform="translate(409,0)" x2="0" y2="5" stroke="#888" stroke-width="1" opacity="1"/><line transform="translate(450,0)" x2="0" y2="5" stroke="#888" stroke-width="1" opacity="1"/><line transform="translate(491,0)" x2="0" y2="5" stroke="#888" stroke-width="1" opacity="1"/><line transform="translate(532,0)" x2="0" y2="5" stroke="#888" stroke-width="1" opacity="1"/><line transform="translate(573,0)" x2="0" y2="5" stroke="#888" stroke-width="1" opacity="1"/><line transform="translate(614,0)" x2="0" y2="5" stroke="#888" stroke-width="1" opacity="1"/><line transform="translate(655,0)" x2="0" y2="5" stroke="#888" stroke-width="1" opacity="1"/><line transform="translate(695,0)" x2="0" y2="5" stroke="#888" stroke-width="1" opacity="1"/><line transform="translate(736,0)" x2="0" y2="5" stroke="#888" stroke-width="1" opacity="1"/><line transform="translate(777,0)" x2="0" y2="5" stroke="#888" stroke-width="1" opacity="1"/><line transform="translate(818,0)" x2="0" y2="5" stroke="#888" stroke-width="1" opacity="1"/><line transform="translate(859,0)" x2="0" y2="5" stroke="#888" stroke-width="1" opacity="1"/><line transform="translate(900,0)" x2="0" y2="5" stroke="#888" stroke-width="1" opacity="1"/></g><g class="mark-text role-axis-label" pointer-events="none"><text text-anchor="start" transform="translate(0,15)" font-family="sans-serif" font-size="10px" fill="#000" opacity="1">1,800</text><text text-anchor="middle" transform="translate(40.909090909090914,15)" font-family="sans-serif" font-size="10px" fill="#000" opacity="1">1,810</text><text text-anchor="middle" transform="translate(81.81818181818183,15)" font-family="sans-serif" font-size="10px" fill="#000" opacity="1">1,820</text><text text-anchor="middle" transform="translate(122.72727272727272,15)" font-family="sans-serif" font-size="10px" fill="#000" opacity="1">1,830</text><text text-anchor="middle" transform="translate(163.63636363636365,15)" font-family="sans-serif" font-size="10px" fill="#000" opacity="1">1,840</text><text text-anchor="middle" transform="translate(204.54545454545453,15)" font-family="sans-serif" font-size="10px" fill="#000" opacity="1">1,850</text><text text-anchor="middle" transform="translate(245.45454545454544,15)" font-family="sans-serif" font-size="10px" fill="#000" opacity="1">1,860</text><text text-anchor="middle" transform="translate(286.3636363636364,15)" font-family="sans-serif" font-size="10px" fill="#000" opacity="1">1,870</text><text text-anchor="middle" transform="translate(327.2727272727273,15)" font-family="sans-serif" font-size="10px" fill="#000" opacity="1">1,880</text><text text-anchor="middle" transform="translate(368.1818181818182,15)" font-family="sans-serif" font-size="10px" fill="#000" opacity="1">1,890</text><text text-anchor="middle" transform="translate(409.09090909090907,15)" font-family="sans-serif" font-size="10px" fill="#000" opacity="1">1,900</text><text text-anchor="middle" transform="translate(450,15)" font-family="sans-serif" font-size="10px" fill="#000" opacity="1">1,910</text><text text-anchor="middle" transform="translate(490.9090909090909,15)" font-family="sans-serif" font-size="10px" fill="#000" opacity="1">1,920</text><text text-anchor="middle" transform="translate(531.8181818181819,15)" font-family="sans-serif" font-size="10px" fill="#000" opacity="1">1,930</text><text text-anchor="middle" transform="translate(572.7272727272727,15)" font-family="sans-serif" font-size="10px" fill="#000" opacity="1">1,940</text><text text-anchor="middle" transform="translate(613.6363636363636,15)" font-family="sans-serif" font-size="10px" fill="#000" opacity="1">1,950</text><text text-anchor="middle" transform="translate(654.5454545454546,15)" font-family="sans-serif" font-size="10px" fill="#000" opacity="1">1,960</text><text text-anchor="middle" transform="translate(695.4545454545454,15)" font-family="sans-serif" font-size="10px" fill="#000" opacity="1">1,970</text><text text-anchor="middle" transform="translate(736.3636363636364,15)" font-family="sans-serif" font-size="10px" fill="#000" opacity="1">1,980</text><text text-anchor="middle" transform="translate(777.2727272727273,15)" font-family="sans-serif" font-size="10px" fill="#000" opacity="1">1,990</text><text text-anchor="middle" transform="translate(818.1818181818181,15)" font-family="sans-serif" font-size="10px" fill="#000" opacity="1">2,000</text><text text-anchor="middle" transform="translate(859.0909090909091,15)" font-family="sans-serif" font-size="10px" fill="#000" opacity="1">2,010</text><text text-anchor="end" transform="translate(900,15)" font-family="sans-serif" font-size="10px" fill="#000" opacity="1">2,020</text></g><g class="mark-rule role-axis-domain" pointer-events="none"><line transform="translate(0,0)" x2="900" y2="0" stroke="#888" stroke-width="1" opacity="1"/></g><g class="mark-text role-axis-title" pointer-events="none"><text text-anchor="middle" transform="translate(450,30)" font-family="sans-serif" font-size="11px" font-weight="bold" fill="#000" opacity="1">Year</text></g></g><path class="foreground" aria-hidden="true" d="" pointer-events="none" display="none"/></g></g><g class="mark-group role-axis" role="graphics-symbol" aria-roledescription="axis" aria-label="Y-axis titled 'Normalized index (0–100)' for a linear scale with values from 0 to 100"><g transform="translate(0.5,0.5)"><path class="background" aria-hidden="true" d="M0,0h0v0h0Z" pointer-events="none"/><g><g class="mark-rule role-axis-tick" pointer-events="none"><line transform="translate(0,420)" x2="-5" y2="0" stroke="#888" stroke-width="1" opacity="1"/><line transform="translate(0,378)" x2="-5" y2="0" stroke="#888" stroke-width="1" opacity="1"/><line transform="translate(0,336)" x2="-5" y2="0" stroke="#888" stroke-width="1" opacity="1"/><line transform="translate(0,294)" x2="-5" y2="0" stroke="#888" stroke-width="1" opacity="1"/><line transform="translate(0,252)" x2="-5" y2="0" stroke="#888" stroke-width="1" opacity="1"/><line transform="translate(0,210)" x2="-5" y2="0" stroke="#888" stroke-width="1" opacity="1"/><line transform="translate(0,168)" x2="-5" y2="0" stroke="#888" stroke-width="1" opacity="1"/><line transform="translate(0,126)" x2="-5" y2="0" stroke="#888" stroke-width="1" opacity="1"/><line transform="translate(0,84)" x2="-5" y2="0" stroke="#888" stroke-width="1" opacity="1"/><line transform="translate(0,42)" x2="-5" y2="0" stroke="#888" stroke-width="1" opacity="1"/><line transform="translate(0,0)" x2="-5" y2="0" stroke="#888" stroke-width="1" opacity="1"/></g><g class="mark-text role-axis-label" pointer-events="none"><text text-anchor="end" transform="translate(-7,423)" font-family="sans-serif" font-size="10px" fill="#000" opacity="1">0</text><text text-anchor="end" transform="translate(-7,381)" font-family="sans-serif" font-size="10px" fill="#000" opacity="1">10</text><text text-anchor="end" transform="translate(-7,339)" font-family="sans-serif" font-size="10px" fill="#000" opacity="1">20</text><text text-anchor="end" transform="translate(-7,297)" font-family="sans-serif" font-size="10px" fill="#000" opacity="1">30</text><text text-anchor="end" transform="translate(-7,255)" font-family="sans-serif" font-size="10px" fill="#000" opacity="1">40</text><text text-anchor="end" transform="translate(-7,213)" font-family="sans-serif" font-size="10px" fill="#000" opacity="1">50</text><text text-anchor="end" transform="translate(-7,171)" font-family="sans-serif" font-size="10px" fill="#000" opacity="1">60</text><text text-anchor="end" transform="translate(-7,129)" font-family="sans-serif" font-size="10px" fill="#000" opacity="1">70</text><text text-anchor="end" transform="translate(-7,86.99999999999999)" font-family="sans-serif" font-size="10px" fill="#000" opacity="1">80</text><text text-anchor="end" transform="translate(-7,44.99999999999999)" font-family="sans-serif" font-size="10px" fill="#000" opacity="1">90</text><text text-anchor="end" transform="translate(-7,3)" font-family="sans-serif" font-size="10px" fill="#000" opacity="1">100</text></g><g class="mark-rule role-axis-domain" pointer-events="none"><line transform="translate(0,420)" x2="0" y2="-420" stroke="#888" stroke-width="1" opacity="1"/></g><g class="mark-text role-axis-title" pointer-events="none"><text text-anchor="middle" transform="translate(-28.1591796875,210) rotate(-90) translate(0,-2)" font-family="sans-serif" font-size="11px" font-weight="bold" fill="#000" opacity="1">Normalized index (0–100)</text></g></g><path class="foreground" aria-hidden="true" d="" pointer-events="none" display="none"/></g></g><g class="mark-group role-scope layer_0_pathgroup" role="graphics-object" aria-roledescription="group mark container"><g transform="translate(0,0)"><path class="background" aria-hidden="true" d="M0,0h900v420h-900Z"/><g><g class="mark-line role-mark layer_0_marks" role="graphics-object" aria-roledescription="line mark container"><path aria-label="Year: 1800; Normalized index (0–100): 25; Series: LifeExpectancy" role="graphics-symbol" aria-roledescription="line mark" d="M0,315L409.091,289.8L818.182,138.6L900,117.6" stroke="#f58518" stroke-width="2" opacity="0.6"/></g></g><path class="foreground" aria-hidden="true" d="" display="none"/></g><g transform="translate(0,0)"><path class="background" aria-hidden="true" d="M0,0h900v420h-900Z"/><g><g class="mark-line role-mark layer_0_marks" role="graphics-object" aria-roledescription="line mark container"><path aria-label="Year: 1800; Normalized index (0–100): 12; Series: Literacy" role="graphics-symbol" aria-roledescription="line mark" d="M0,369.6L409.091,331.8L818.182,75.6L900,58.8" stroke="#e45756" stroke-width="2" opacity="0.6"/></g></g><path class="foreground" aria-hidden="true" d="" display="none"/></g><g transform="translate(0,0)"><path class="background" aria-hidden="true" d="M0,0h900v420h-900Z"/><g><g class="mark-line role-mark layer_0_marks" role="graphics-object" aria-roledescription="line mark container"><path aria-label="Year: 1800; Normalized index (0–100): 5; Series: ExtremePovertyInv" role="graphics-symbol" aria-roledescription="line mark" d="M0,399L409.091,386.4L818.182,63L900,33.6" stroke="#4c78a8" stroke-width="2" opacity="0.6"/></g></g><path class="foreground" aria-hidden="true" d="" display="none"/></g></g><g class="mark-line role-mark layer_1_marks" role="graphics-object" aria-roledescription="line mark container"><path aria-label="t: 1800; Vitality: 14" role="graphics-symbol" aria-roledescription="line mark" d="M0,361.2L409.091,336L818.182,92.4L900,70" stroke="black" stroke-width="4"/></g><g class="mark-group role-legend" role="graphics-symbol" aria-roledescription="legend" aria-label="Symbol legend titled 'Series' for stroke color with 3 values: ExtremePovertyInv, LifeExpectancy, Literacy"><g transform="translate(920,0)"><path class="background" aria-hidden="true" d="M0,0h106v53h-106Z" pointer-events="none"/><g><g class="mark-group role-legend-entry"><g transform="translate(0,16)"><path class="background" aria-hidden="true" d="M0,0h0v0h0Z" pointer-events="none"/><g><g class="mark-group role-scope" role="graphics-object" aria-roledescription="group mark container"><g transform="translate(0,0)"><path class="background" aria-hidden="true" d="M0,0h105.1220703125v11h-105.1220703125Z" pointer-events="none" opacity="1"/><g><g class="mark-symbol role-legend-symbol" pointer-events="none"><path transform="translate(6,6)" d="M-5,0L5,0" stroke="#4c78a8" stroke-width="1.5" opacity="0.6"/></g><g class="mark-text role-legend-label" pointer-events="none"><text text-anchor="start" transform="translate(16,9)" font-family="sans-serif" font-size="10px" fill="#000" opacity="1">ExtremePovertyInv</text></g></g><path class="foreground" aria-hidden="true" d="" pointer-events="none" display="none"/></g><g transform="translate(0,13)"><path class="background" aria-hidden="true" d="M0,0h105.1220703125v11h-105.1220703125Z" pointer-events="none" opacity="1"/><g><g class="mark-symbol role-legend-symbol" pointer-events="none"><path transform="translate(6,6)" d="M-5,0L5,0" stroke="#f58518" stroke-width="1.5" opacity="0.6"/></g><g class="mark-text role-legend-label" pointer-events="none"><text text-anchor="start" transform="translate(16,9)" font-family="sans-serif" font-size="10px" fill="#000" opacity="1">LifeExpectancy</text></g></g><path class="foreground" aria-hidden="true" d="" pointer-events="none" display="none"/></g><g transform="translate(0,26)"><path class="background" aria-hidden="true" d="M0,0h105.1220703125v11h-105.1220703125Z" pointer-events="none" opacity="1"/><g><g class="mark-symbol role-legend-symbol" pointer-events="none"><path transform="translate(6,6)" d="M-5,0L5,0" stroke="#e45756" stroke-width="1.5" opacity="0.6"/></g><g class="mark-text role-legend-label" pointer-events="none"><text text-anchor="start" transform="translate(16,9)" font-family="sans-serif" font-size="10px" fill="#000" opacity="1">Literacy</text></g></g><path class="foreground" aria-hidden="true" d="" pointer-events="none" display="none"/></g></g></g><path class="foreground" aria-hidden="true" d="" pointer-events="none" display="none"/></g></g><g class="mark-text role-legend-title" pointer-events="none"><text text-anchor="start" transform="translate(0,9)" font-family="sans-serif" font-size="11px" font-weight="bold" fill="#000" opacity="1">Series</text></g></g><path class="foreground" aria-hidden="true" d="" pointer-events="none" display="none"/></g></g></g><path class="foreground" aria-hidden="true" d="" display="none"/></g></g></g></svg>