<?xml version="1.0" encoding="utf-8" standalone="no"?>
<!DOCTYPE svg PUBLIC "-//W3C//DTD SVG 1.1//EN"
  "http://www.w3.org/Graphics/SVG/1.1/DTD/svg11.dtd">
<svg xmlns:xlink="http://www.w3.org/1999/xlink" width="531.894855pt" height="486.329847pt" viewBox="0 0 531.894855 486.329847" xmlns="http://www.w3.org/2000/svg" version="1.1">
 <metadata>
  <rdf:RDF xmlns:dc="http://purl.org/dc/elements/1.1/" xmlns:cc="http://creativecommons.org/ns#" xmlns:rdf="http://www.w3.org/1999/02/22-rdf-syntax-ns#">
   <cc:Work>
    <dc:type rdf:resource="http://purl.org/dc/dcmitype/StillImage"/>
    <dc:date>2025-10-05T10:31:49.119395</dc:date>
    <dc:format>image/svg+xml</dc:format>
    <dc:creator>
     <cc:Agent>
      <dc:title>Matplotlib v3.6.3, https://matplotlib.org/</dc:title>
     </cc:Agent>
    </dc:creator>
   </cc:Work>
  </rdf:RDF>
 </metadata>
 <defs>
  <style type="text/css">*{stroke-linejoin: round; stroke-linecap: butt}</style>
 </defs>
 <g id="figure_1">
  <g id="patch_1">
   <path d="M 0 486.329847 
L 531.894855 486.329847 
L 531.894855 0 
L 0 0 
z
" style="fill: #ffffff"/>
  </g>
  <g id="axes_1">
   <g id="patch_2">
    <path d="M 302.538525 458.987447 
C 355.956795 458.987447 407.194382 437.764144 444.966802 399.991723 
C 482.739223 362.219302 503.962526 310.981716 503.962526 257.563446 
C 503.962526 204.145177 482.739223 152.90759 444.966802 115.135169 
C 407.194382 77.362749 355.956795 56.139445 302.538525 56.139445 
C 249.120256 56.139445 197.882669 77.362749 160.110248 115.135169 
C 122.337828 152.90759 101.114524 204.145177 101.114524 257.563446 
C 101.114524 310.981716 122.337828 362.219302 160.110248 399.991723 
C 197.882669 437.764144 249.120256 458.987447 302.538525 458.987447 
z
" clip-path="url(#pd118e66a02)" style="fill: #f44336; stroke: #f44336; stroke-linejoin: miter"/>
   </g>
   <g id="patch_3">
    <path d="M 302.538525 422.731127 
C 346.341506 422.731127 388.356328 405.328018 419.329713 374.354633 
C 450.303097 343.381248 467.706206 301.366427 467.706206 257.563446 
C 467.706206 213.760465 450.303097 171.745644 419.329713 140.772259 
C 388.356328 109.798874 346.341506 92.395765 302.538525 92.395765 
C 258.735544 92.395765 216.720723 109.798874 185.747338 140.772259 
C 154.773953 171.745644 137.370845 213.760465 137.370845 257.563446 
C 137.370845 301.366427 154.773953 343.381248 185.747338 374.354633 
C 216.720723 405.328018 258.735544 422.731127 302.538525 422.731127 
z
" clip-path="url(#pd118e66a02)" style="fill: #ff9800; stroke: #ff9800; stroke-linejoin: miter"/>
   </g>
   <g id="patch_4">
    <path d="M 302.538525 386.474807 
C 336.726218 386.474807 369.518273 372.891893 393.692623 348.717543 
C 417.866972 324.543194 431.449886 291.751139 431.449886 257.563446 
C 431.449886 223.375754 417.866972 190.583698 393.692623 166.409349 
C 369.518273 142.235 336.726218 128.652086 302.538525 128.652086 
C 268.350833 128.652086 235.558777 142.235 211.384428 166.409349 
C 187.210079 190.583698 173.627165 223.375754 173.627165 257.563446 
C 173.627165 291.751139 187.210079 324.543194 211.384428 348.717543 
C 235.558777 372.891893 268.350833 386.474807 302.538525 386.474807 
z
" clip-path="url(#pd118e66a02)" style="fill: #4caf50; stroke: #4caf50; stroke-linejoin: miter"/>
   </g>
   <g id="patch_5">
    <path d="M 302.538525 350.218487 
C 327.110929 350.218487 350.680219 340.455767 368.055533 323.080454 
C 385.430846 305.70514 395.193566 282.13585 395.193566 257.563446 
C 395.193566 232.991042 385.430846 209.421752 368.055533 192.046439 
C 350.680219 174.671125 327.110929 164.908406 302.538525 164.908406 
C 277.966121 164.908406 254.396831 174.671125 237.021518 192.046439 
C 219.646205 209.421752 209.883485 232.991042 209.883485 257.563446 
C 209.883485 282.13585 219.646205 305.70514 237.021518 323.080454 
C 254.396831 340.455767 277.966121 350.218487 302.538525 350.218487 
z
" clip-path="url(#pd118e66a02)" style="fill: #2196f3; stroke: #2196f3; stroke-linejoin: miter"/>
   </g>
   <g id="patch_6">
    <path d="M 302.538525 313.962166 
C 317.495641 313.962166 331.842165 308.019641 342.418443 297.443364 
C 352.994721 286.867086 358.937246 272.520562 358.937246 257.563446 
C 358.937246 242.606331 352.994721 228.259806 342.418443 217.683529 
C 331.842165 207.107251 317.495641 201.164726 302.538525 201.164726 
C 287.58141 201.164726 273.234886 207.107251 262.658608 217.683529 
C 252.08233 228.259806 246.139805 242.606331 246.139805 257.563446 
C 246.139805 272.520562 252.08233 286.867086 262.658608 297.443364 
C 273.234886 308.019641 287.58141 313.962166 302.538525 313.962166 
z
" clip-path="url(#pd118e66a02)" style="fill: #9c27b0; stroke: #9c27b0; stroke-linejoin: miter"/>
   </g>
   <g id="patch_7">
    <path d="M 302.538525 422.731127 
C 346.341506 422.731127 388.356328 405.328018 419.329713 374.354633 
C 450.303097 343.381248 467.706206 301.366427 467.706206 257.563446 
C 467.706206 213.760465 450.303097 171.745644 419.329713 140.772259 
C 388.356328 109.798874 346.341506 92.395765 302.538525 92.395765 
C 258.735544 92.395765 216.720723 109.798874 185.747338 140.772259 
C 154.773953 171.745644 137.370845 213.760465 137.370845 257.563446 
C 137.370845 301.366427 154.773953 343.381248 185.747338 374.354633 
C 216.720723 405.328018 258.735544 422.731127 302.538525 422.731127 
z
" clip-path="url(#pd118e66a02)" style="fill: #ffffff; stroke: #ffffff; stroke-linejoin: miter"/>
   </g>
   <g id="patch_8">
    <path d="M 302.538525 386.474807 
C 336.726218 386.474807 369.518273 372.891893 393.692623 348.717543 
C 417.866972 324.543194 431.449886 291.751139 431.449886 257.563446 
C 431.449886 223.375754 417.866972 190.583698 393.692623 166.409349 
C 369.518273 142.235 336.726218 128.652086 302.538525 128.652086 
C 268.350833 128.652086 235.558777 142.235 211.384428 166.409349 
C 187.210079 190.583698 173.627165 223.375754 173.627165 257.563446 
C 173.627165 291.751139 187.210079 324.543194 211.384428 348.717543 
C 235.558777 372.891893 268.350833 386.474807 302.538525 386.474807 
z
" clip-path="url(#pd118e66a02)" style="fill: #ffffff; stroke: #ffffff; stroke-linejoin: miter"/>
   </g>
   <g id="patch_9">
    <path d="M 302.538525 350.218487 
C 327.110929 350.218487 350.680219 340.455767 368.055533 323.080454 
C 385.430846 305.70514 395.193566 282.13585 395.193566 257.563446 
C 395.193566 232.991042 385.430846 209.421752 368.055533 192.046439 
C 350.680219 174.671125 327.110929 164.908406 302.538525 164.908406 
C 277.966121 164.908406 254.396831 174.671125 237.021518 192.046439 
C 219.646205 209.421752 209.883485 232.991042 209.883485 257.563446 
C 209.883485 282.13585 219.646205 305.70514 237.021518 323.080454 
C 254.396831 340.455767 277.966121 350.218487 302.538525 350.218487 
z
" clip-path="url(#pd118e66a02)" style="fill: #ffffff; stroke: #ffffff; stroke-linejoin: miter"/>
   </g>
   <g id="patch_10">
    <path d="M 302.538525 313.962166 
C 317.495641 313.962166 331.842165 308.019641 342.418443 297.443364 
C 352.994721 286.867086 358.937246 272.520562 358.937246 257.563446 
C 358.937246 242.606331 352.994721 228.259806 342.418443 217.683529 
C 331.842165 207.107251 317.495641 201.164726 302.538525 201.164726 
C 287.58141 201.164726 273.234886 207.107251 262.658608 217.683529 
C 252.08233 228.259806 246.139805 242.606331 246.139805 257.563446 
C 246.139805 272.520562 252.08233 286.867086 262.658608 297.443364 
C 273.234886 308.019641 287.58141 313.962166 302.538525 313.962166 
z
" clip-path="url(#pd118e66a02)" style="fill: #ffffff; stroke: #ffffff; stroke-linejoin: miter"/>
   </g>
   <g id="patch_11">
    <path d="M 302.538525 257.563446 
C 302.538525 257.563446 302.538525 257.563446 302.538525 257.563446 
C 302.538525 257.563446 302.538525 257.563446 302.538525 257.563446 
C 302.538525 257.563446 302.538525 257.563446 302.538525 257.563446 
C 302.538525 257.563446 302.538525 257.563446 302.538525 257.563446 
C 302.538525 257.563446 302.538525 257.563446 302.538525 257.563446 
C 302.538525 257.563446 302.538525 257.563446 302.538525 257.563446 
C 302.538525 257.563446 302.538525 257.563446 302.538525 257.563446 
C 302.538525 257.563446 302.538525 257.563446 302.538525 257.563446 
z
" clip-path="url(#pd118e66a02)" style="fill: #ffffff; stroke: #ffffff; stroke-linejoin: miter"/>
   </g>
   <g id="line2d_1">
    <path d="M 231.553171 62.532789 
L 240.812131 87.97157 
" clip-path="url(#pd118e66a02)" style="fill: none; stroke-dasharray: 1,1.65; stroke-dashoffset: 0; stroke: #000000"/>
   </g>
   <g id="line2d_2">
    <path d="M 461.528974 124.154619 
L 440.791089 141.555771 
" clip-path="url(#pd118e66a02)" style="fill: none; stroke-dasharray: 1,1.65; stroke-dashoffset: 0; stroke: #000000"/>
   </g>
   <g id="line2d_3">
    <path d="M 461.528974 390.972273 
L 440.791089 373.571122 
" clip-path="url(#pd118e66a02)" style="fill: none; stroke-dasharray: 1,1.65; stroke-dashoffset: 0; stroke: #000000"/>
   </g>
   <g id="line2d_4">
    <path d="M 231.553171 452.594104 
L 240.812131 427.155322 
" clip-path="url(#pd118e66a02)" style="fill: none; stroke-dasharray: 1,1.65; stroke-dashoffset: 0; stroke: #000000"/>
   </g>
   <g id="line2d_5">
    <path d="M 98.144345 221.523237 
L 124.804455 226.224134 
" clip-path="url(#pd118e66a02)" style="fill: none; stroke-dasharray: 1,1.65; stroke-dashoffset: 0; stroke: #000000"/>
   </g>
   <g id="text_1">
    <!-- CoAgency — Core + Orbits -->
    <g style="fill: #333333" transform="translate(109.575869 26.955938) scale(0.26 -0.26)">
     <defs>
      <path id="DejaVuSans-Bold-43" d="M 4288 256 
Q 3956 84 3597 -3 
Q 3238 -91 2847 -91 
Q 1681 -91 1000 561 
Q 319 1213 319 2328 
Q 319 3447 1000 4098 
Q 1681 4750 2847 4750 
Q 3238 4750 3597 4662 
Q 3956 4575 4288 4403 
L 4288 3438 
Q 3953 3666 3628 3772 
Q 3303 3878 2944 3878 
Q 2300 3878 1931 3465 
Q 1563 3053 1563 2328 
Q 1563 1606 1931 1193 
Q 2300 781 2944 781 
Q 3303 781 3628 887 
Q 3953 994 4288 1222 
L 4288 256 
z
" transform="scale(0.015625)"/>
      <path id="DejaVuSans-Bold-6f" d="M 2203 2784 
Q 1831 2784 1636 2517 
Q 1441 2250 1441 1747 
Q 1441 1244 1636 976 
Q 1831 709 2203 709 
Q 2569 709 2762 976 
Q 2956 1244 2956 1747 
Q 2956 2250 2762 2517 
Q 2569 2784 2203 2784 
z
M 2203 3584 
Q 3106 3584 3614 3096 
Q 4122 2609 4122 1747 
Q 4122 884 3614 396 
Q 3106 -91 2203 -91 
Q 1297 -91 786 396 
Q 275 884 275 1747 
Q 275 2609 786 3096 
Q 1297 3584 2203 3584 
z
" transform="scale(0.015625)"/>
      <path id="DejaVuSans-Bold-41" d="M 3419 850 
L 1538 850 
L 1241 0 
L 31 0 
L 1759 4666 
L 3194 4666 
L 4922 0 
L 3713 0 
L 3419 850 
z
M 1838 1716 
L 3116 1716 
L 2478 3572 
L 1838 1716 
z
" transform="scale(0.015625)"/>
      <path id="DejaVuSans-Bold-67" d="M 2919 594 
Q 2688 288 2409 144 
Q 2131 0 1766 0 
Q 1125 0 706 504 
Q 288 1009 288 1791 
Q 288 2575 706 3076 
Q 1125 3578 1766 3578 
Q 2131 3578 2409 3434 
Q 2688 3291 2919 2981 
L 2919 3500 
L 4044 3500 
L 4044 353 
Q 4044 -491 3511 -936 
Q 2978 -1381 1966 -1381 
Q 1638 -1381 1331 -1331 
Q 1025 -1281 716 -1178 
L 716 -306 
Q 1009 -475 1290 -558 
Q 1572 -641 1856 -641 
Q 2406 -641 2662 -400 
Q 2919 -159 2919 353 
L 2919 594 
z
M 2181 2772 
Q 1834 2772 1640 2515 
Q 1447 2259 1447 1791 
Q 1447 1309 1634 1061 
Q 1822 813 2181 813 
Q 2531 813 2725 1069 
Q 2919 1325 2919 1791 
Q 2919 2259 2725 2515 
Q 2531 2772 2181 2772 
z
" transform="scale(0.015625)"/>
      <path id="DejaVuSans-Bold-65" d="M 4031 1759 
L 4031 1441 
L 1416 1441 
Q 1456 1047 1700 850 
Q 1944 653 2381 653 
Q 2734 653 3104 758 
Q 3475 863 3866 1075 
L 3866 213 
Q 3469 63 3072 -14 
Q 2675 -91 2278 -91 
Q 1328 -91 801 392 
Q 275 875 275 1747 
Q 275 2603 792 3093 
Q 1309 3584 2216 3584 
Q 3041 3584 3536 3087 
Q 4031 2591 4031 1759 
z
M 2881 2131 
Q 2881 2450 2695 2645 
Q 2509 2841 2209 2841 
Q 1884 2841 1681 2658 
Q 1478 2475 1428 2131 
L 2881 2131 
z
" transform="scale(0.015625)"/>
      <path id="DejaVuSans-Bold-6e" d="M 4056 2131 
L 4056 0 
L 2931 0 
L 2931 347 
L 2931 1631 
Q 2931 2084 2911 2256 
Q 2891 2428 2841 2509 
Q 2775 2619 2662 2680 
Q 2550 2741 2406 2741 
Q 2056 2741 1856 2470 
Q 1656 2200 1656 1722 
L 1656 0 
L 538 0 
L 538 3500 
L 1656 3500 
L 1656 2988 
Q 1909 3294 2193 3439 
Q 2478 3584 2822 3584 
Q 3428 3584 3742 3212 
Q 4056 2841 4056 2131 
z
" transform="scale(0.015625)"/>
      <path id="DejaVuSans-Bold-63" d="M 3366 3391 
L 3366 2478 
Q 3138 2634 2908 2709 
Q 2678 2784 2431 2784 
Q 1963 2784 1702 2511 
Q 1441 2238 1441 1747 
Q 1441 1256 1702 982 
Q 1963 709 2431 709 
Q 2694 709 2930 787 
Q 3166 866 3366 1019 
L 3366 103 
Q 3103 6 2833 -42 
Q 2563 -91 2291 -91 
Q 1344 -91 809 395 
Q 275 881 275 1747 
Q 275 2613 809 3098 
Q 1344 3584 2291 3584 
Q 2566 3584 2833 3536 
Q 3100 3488 3366 3391 
z
" transform="scale(0.015625)"/>
      <path id="DejaVuSans-Bold-79" d="M 78 3500 
L 1197 3500 
L 2138 1125 
L 2938 3500 
L 4056 3500 
L 2584 -331 
Q 2363 -916 2067 -1148 
Q 1772 -1381 1288 -1381 
L 641 -1381 
L 641 -647 
L 991 -647 
Q 1275 -647 1404 -556 
Q 1534 -466 1606 -231 
L 1638 -134 
L 78 3500 
z
" transform="scale(0.015625)"/>
      <path id="DejaVuSans-Bold-20" transform="scale(0.015625)"/>
      <path id="DejaVuSans-Bold-2014" d="M 344 2156 
L 6056 2156 
L 6056 1350 
L 344 1350 
L 344 2156 
z
" transform="scale(0.015625)"/>
      <path id="DejaVuSans-Bold-72" d="M 3138 2547 
Q 2991 2616 2845 2648 
Q 2700 2681 2553 2681 
Q 2122 2681 1889 2404 
Q 1656 2128 1656 1613 
L 1656 0 
L 538 0 
L 538 3500 
L 1656 3500 
L 1656 2925 
Q 1872 3269 2151 3426 
Q 2431 3584 2822 3584 
Q 2878 3584 2943 3579 
Q 3009 3575 3134 3559 
L 3138 2547 
z
" transform="scale(0.015625)"/>
      <path id="DejaVuSans-Bold-2b" d="M 3053 4013 
L 3053 2375 
L 4684 2375 
L 4684 1638 
L 3053 1638 
L 3053 0 
L 2309 0 
L 2309 1638 
L 678 1638 
L 678 2375 
L 2309 2375 
L 2309 4013 
L 3053 4013 
z
" transform="scale(0.015625)"/>
      <path id="DejaVuSans-Bold-4f" d="M 2719 3878 
Q 2169 3878 1866 3472 
Q 1563 3066 1563 2328 
Q 1563 1594 1866 1187 
Q 2169 781 2719 781 
Q 3272 781 3575 1187 
Q 3878 1594 3878 2328 
Q 3878 3066 3575 3472 
Q 3272 3878 2719 3878 
z
M 2719 4750 
Q 3844 4750 4481 4106 
Q 5119 3463 5119 2328 
Q 5119 1197 4481 553 
Q 3844 -91 2719 -91 
Q 1597 -91 958 553 
Q 319 1197 319 2328 
Q 319 3463 958 4106 
Q 1597 4750 2719 4750 
z
" transform="scale(0.015625)"/>
      <path id="DejaVuSans-Bold-62" d="M 2400 722 
Q 2759 722 2948 984 
Q 3138 1247 3138 1747 
Q 3138 2247 2948 2509 
Q 2759 2772 2400 2772 
Q 2041 2772 1848 2508 
Q 1656 2244 1656 1747 
Q 1656 1250 1848 986 
Q 2041 722 2400 722 
z
M 1656 2988 
Q 1888 3294 2169 3439 
Q 2450 3584 2816 3584 
Q 3463 3584 3878 3070 
Q 4294 2556 4294 1747 
Q 4294 938 3878 423 
Q 3463 -91 2816 -91 
Q 2450 -91 2169 54 
Q 1888 200 1656 506 
L 1656 0 
L 538 0 
L 538 4863 
L 1656 4863 
L 1656 2988 
z
" transform="scale(0.015625)"/>
      <path id="DejaVuSans-Bold-69" d="M 538 3500 
L 1656 3500 
L 1656 0 
L 538 0 
L 538 3500 
z
M 538 4863 
L 1656 4863 
L 1656 3950 
L 538 3950 
L 538 4863 
z
" transform="scale(0.015625)"/>
      <path id="DejaVuSans-Bold-74" d="M 1759 4494 
L 1759 3500 
L 2913 3500 
L 2913 2700 
L 1759 2700 
L 1759 1216 
Q 1759 972 1856 886 
Q 1953 800 2241 800 
L 2816 800 
L 2816 0 
L 1856 0 
Q 1194 0 917 276 
Q 641 553 641 1216 
L 641 2700 
L 84 2700 
L 84 3500 
L 641 3500 
L 641 4494 
L 1759 4494 
z
" transform="scale(0.015625)"/>
      <path id="DejaVuSans-Bold-73" d="M 3272 3391 
L 3272 2541 
Q 2913 2691 2578 2766 
Q 2244 2841 1947 2841 
Q 1628 2841 1473 2761 
Q 1319 2681 1319 2516 
Q 1319 2381 1436 2309 
Q 1553 2238 1856 2203 
L 2053 2175 
Q 2913 2066 3209 1816 
Q 3506 1566 3506 1031 
Q 3506 472 3093 190 
Q 2681 -91 1863 -91 
Q 1516 -91 1145 -36 
Q 775 19 384 128 
L 384 978 
Q 719 816 1070 734 
Q 1422 653 1784 653 
Q 2113 653 2278 743 
Q 2444 834 2444 1013 
Q 2444 1163 2330 1236 
Q 2216 1309 1875 1350 
L 1678 1375 
Q 931 1469 631 1722 
Q 331 1975 331 2491 
Q 331 3047 712 3315 
Q 1094 3584 1881 3584 
Q 2191 3584 2531 3537 
Q 2872 3491 3272 3391 
z
" transform="scale(0.015625)"/>
     </defs>
     <use xlink:href="#DejaVuSans-Bold-43"/>
     <use xlink:href="#DejaVuSans-Bold-6f" x="73.388672"/>
     <use xlink:href="#DejaVuSans-Bold-41" x="142.089844"/>
     <use xlink:href="#DejaVuSans-Bold-67" x="219.482422"/>
     <use xlink:href="#DejaVuSans-Bold-65" x="291.064453"/>
     <use xlink:href="#DejaVuSans-Bold-6e" x="358.886719"/>
     <use xlink:href="#DejaVuSans-Bold-63" x="430.078125"/>
     <use xlink:href="#DejaVuSans-Bold-79" x="489.355469"/>
     <use xlink:href="#DejaVuSans-Bold-20" x="554.541016"/>
     <use xlink:href="#DejaVuSans-Bold-2014" x="589.355469"/>
     <use xlink:href="#DejaVuSans-Bold-20" x="689.355469"/>
     <use xlink:href="#DejaVuSans-Bold-43" x="724.169922"/>
     <use xlink:href="#DejaVuSans-Bold-6f" x="797.558594"/>
     <use xlink:href="#DejaVuSans-Bold-72" x="866.259766"/>
     <use xlink:href="#DejaVuSans-Bold-65" x="915.576172"/>
     <use xlink:href="#DejaVuSans-Bold-20" x="983.398438"/>
     <use xlink:href="#DejaVuSans-Bold-2b" x="1018.212891"/>
     <use xlink:href="#DejaVuSans-Bold-20" x="1102.001953"/>
     <use xlink:href="#DejaVuSans-Bold-4f" x="1136.816406"/>
     <use xlink:href="#DejaVuSans-Bold-72" x="1221.826172"/>
     <use xlink:href="#DejaVuSans-Bold-62" x="1271.142578"/>
     <use xlink:href="#DejaVuSans-Bold-69" x="1342.724609"/>
     <use xlink:href="#DejaVuSans-Bold-74" x="1377.001953"/>
     <use xlink:href="#DejaVuSans-Bold-73" x="1424.804688"/>
    </g>
   </g>
   <g id="text_2">
    <!-- Recognition &amp; Integration Layer -->
    <g style="fill: #ffffff" transform="translate(194.044463 79.54622) scale(0.12 -0.12)">
     <defs>
      <path id="DejaVuSans-Bold-52" d="M 2297 2597 
Q 2675 2597 2839 2737 
Q 3003 2878 3003 3200 
Q 3003 3519 2839 3656 
Q 2675 3794 2297 3794 
L 1791 3794 
L 1791 2597 
L 2297 2597 
z
M 1791 1766 
L 1791 0 
L 588 0 
L 588 4666 
L 2425 4666 
Q 3347 4666 3776 4356 
Q 4206 4047 4206 3378 
Q 4206 2916 3982 2619 
Q 3759 2322 3309 2181 
Q 3556 2125 3751 1926 
Q 3947 1728 4147 1325 
L 4800 0 
L 3519 0 
L 2950 1159 
Q 2778 1509 2601 1637 
Q 2425 1766 2131 1766 
L 1791 1766 
z
" transform="scale(0.015625)"/>
      <path id="DejaVuSans-Bold-26" d="M 2497 3097 
L 3775 1691 
Q 3941 1909 4027 2181 
Q 4113 2453 4128 2797 
L 5100 2797 
Q 5053 2228 4879 1784 
Q 4706 1341 4397 1006 
L 5313 0 
L 3988 0 
L 3681 341 
Q 3353 122 2990 15 
Q 2628 -91 2222 -91 
Q 1400 -91 892 342 
Q 384 775 384 1459 
Q 384 1916 607 2267 
Q 831 2619 1338 2950 
Q 1206 3116 1143 3281 
Q 1081 3447 1081 3628 
Q 1081 4138 1478 4444 
Q 1875 4750 2534 4750 
Q 2819 4750 3126 4704 
Q 3434 4659 3769 4569 
L 3769 3700 
Q 3475 3850 3212 3922 
Q 2950 3994 2700 3994 
Q 2459 3994 2326 3901 
Q 2194 3809 2194 3641 
Q 2194 3534 2270 3398 
Q 2347 3263 2497 3097 
z
M 1875 2322 
Q 1672 2175 1569 1989 
Q 1466 1803 1466 1581 
Q 1466 1222 1731 969 
Q 1997 716 2369 716 
Q 2578 716 2759 780 
Q 2941 844 3097 972 
L 1875 2322 
z
" transform="scale(0.015625)"/>
      <path id="DejaVuSans-Bold-49" d="M 588 4666 
L 1791 4666 
L 1791 0 
L 588 0 
L 588 4666 
z
" transform="scale(0.015625)"/>
      <path id="DejaVuSans-Bold-61" d="M 2106 1575 
Q 1756 1575 1579 1456 
Q 1403 1338 1403 1106 
Q 1403 894 1545 773 
Q 1688 653 1941 653 
Q 2256 653 2472 879 
Q 2688 1106 2688 1447 
L 2688 1575 
L 2106 1575 
z
M 3816 1997 
L 3816 0 
L 2688 0 
L 2688 519 
Q 2463 200 2181 54 
Q 1900 -91 1497 -91 
Q 953 -91 614 226 
Q 275 544 275 1050 
Q 275 1666 698 1953 
Q 1122 2241 2028 2241 
L 2688 2241 
L 2688 2328 
Q 2688 2594 2478 2717 
Q 2269 2841 1825 2841 
Q 1466 2841 1156 2769 
Q 847 2697 581 2553 
L 581 3406 
Q 941 3494 1303 3539 
Q 1666 3584 2028 3584 
Q 2975 3584 3395 3211 
Q 3816 2838 3816 1997 
z
" transform="scale(0.015625)"/>
      <path id="DejaVuSans-Bold-4c" d="M 588 4666 
L 1791 4666 
L 1791 909 
L 3903 909 
L 3903 0 
L 588 0 
L 588 4666 
z
" transform="scale(0.015625)"/>
     </defs>
     <use xlink:href="#DejaVuSans-Bold-52"/>
     <use xlink:href="#DejaVuSans-Bold-65" x="77.001953"/>
     <use xlink:href="#DejaVuSans-Bold-63" x="144.824219"/>
     <use xlink:href="#DejaVuSans-Bold-6f" x="204.101562"/>
     <use xlink:href="#DejaVuSans-Bold-67" x="272.802734"/>
     <use xlink:href="#DejaVuSans-Bold-6e" x="344.384766"/>
     <use xlink:href="#DejaVuSans-Bold-69" x="415.576172"/>
     <use xlink:href="#DejaVuSans-Bold-74" x="449.853516"/>
     <use xlink:href="#DejaVuSans-Bold-69" x="497.65625"/>
     <use xlink:href="#DejaVuSans-Bold-6f" x="531.933594"/>
     <use xlink:href="#DejaVuSans-Bold-6e" x="600.634766"/>
     <use xlink:href="#DejaVuSans-Bold-20" x="671.826172"/>
     <use xlink:href="#DejaVuSans-Bold-26" x="706.640625"/>
     <use xlink:href="#DejaVuSans-Bold-20" x="793.847656"/>
     <use xlink:href="#DejaVuSans-Bold-49" x="828.662109"/>
     <use xlink:href="#DejaVuSans-Bold-6e" x="865.869141"/>
     <use xlink:href="#DejaVuSans-Bold-74" x="937.060547"/>
     <use xlink:href="#DejaVuSans-Bold-65" x="984.863281"/>
     <use xlink:href="#DejaVuSans-Bold-67" x="1052.685547"/>
     <use xlink:href="#DejaVuSans-Bold-72" x="1124.267578"/>
     <use xlink:href="#DejaVuSans-Bold-61" x="1173.583984"/>
     <use xlink:href="#DejaVuSans-Bold-74" x="1241.064453"/>
     <use xlink:href="#DejaVuSans-Bold-69" x="1288.867188"/>
     <use xlink:href="#DejaVuSans-Bold-6f" x="1323.144531"/>
     <use xlink:href="#DejaVuSans-Bold-6e" x="1391.845703"/>
     <use xlink:href="#DejaVuSans-Bold-20" x="1463.037109"/>
     <use xlink:href="#DejaVuSans-Bold-4c" x="1497.851562"/>
     <use xlink:href="#DejaVuSans-Bold-61" x="1561.572266"/>
     <use xlink:href="#DejaVuSans-Bold-79" x="1625.927734"/>
     <use xlink:href="#DejaVuSans-Bold-65" x="1691.113281"/>
     <use xlink:href="#DejaVuSans-Bold-72" x="1758.935547"/>
    </g>
   </g>
   <g id="text_3">
    <!-- Continuity &amp; Memory Layer -->
    <g style="fill: #ffffff" transform="translate(210.030713 115.80254) scale(0.12 -0.12)">
     <defs>
      <path id="DejaVuSans-Bold-75" d="M 500 1363 
L 500 3500 
L 1625 3500 
L 1625 3150 
Q 1625 2866 1622 2436 
Q 1619 2006 1619 1863 
Q 1619 1441 1641 1255 
Q 1663 1069 1716 984 
Q 1784 875 1895 815 
Q 2006 756 2150 756 
Q 2500 756 2700 1025 
Q 2900 1294 2900 1772 
L 2900 3500 
L 4019 3500 
L 4019 0 
L 2900 0 
L 2900 506 
Q 2647 200 2364 54 
Q 2081 -91 1741 -91 
Q 1134 -91 817 281 
Q 500 653 500 1363 
z
" transform="scale(0.015625)"/>
      <path id="DejaVuSans-Bold-4d" d="M 588 4666 
L 2119 4666 
L 3181 2169 
L 4250 4666 
L 5778 4666 
L 5778 0 
L 4641 0 
L 4641 3413 
L 3566 897 
L 2803 897 
L 1728 3413 
L 1728 0 
L 588 0 
L 588 4666 
z
" transform="scale(0.015625)"/>
      <path id="DejaVuSans-Bold-6d" d="M 3781 2919 
Q 3994 3244 4286 3414 
Q 4578 3584 4928 3584 
Q 5531 3584 5847 3212 
Q 6163 2841 6163 2131 
L 6163 0 
L 5038 0 
L 5038 1825 
Q 5041 1866 5042 1909 
Q 5044 1953 5044 2034 
Q 5044 2406 4934 2573 
Q 4825 2741 4581 2741 
Q 4263 2741 4089 2478 
Q 3916 2216 3909 1719 
L 3909 0 
L 2784 0 
L 2784 1825 
Q 2784 2406 2684 2573 
Q 2584 2741 2328 2741 
Q 2006 2741 1831 2477 
Q 1656 2213 1656 1722 
L 1656 0 
L 531 0 
L 531 3500 
L 1656 3500 
L 1656 2988 
Q 1863 3284 2130 3434 
Q 2397 3584 2719 3584 
Q 3081 3584 3359 3409 
Q 3638 3234 3781 2919 
z
" transform="scale(0.015625)"/>
     </defs>
     <use xlink:href="#DejaVuSans-Bold-43"/>
     <use xlink:href="#DejaVuSans-Bold-6f" x="73.388672"/>
     <use xlink:href="#DejaVuSans-Bold-6e" x="142.089844"/>
     <use xlink:href="#DejaVuSans-Bold-74" x="213.28125"/>
     <use xlink:href="#DejaVuSans-Bold-69" x="261.083984"/>
     <use xlink:href="#DejaVuSans-Bold-6e" x="295.361328"/>
     <use xlink:href="#DejaVuSans-Bold-75" x="366.552734"/>
     <use xlink:href="#DejaVuSans-Bold-69" x="437.744141"/>
     <use xlink:href="#DejaVuSans-Bold-74" x="472.021484"/>
     <use xlink:href="#DejaVuSans-Bold-79" x="519.824219"/>
     <use xlink:href="#DejaVuSans-Bold-20" x="585.009766"/>
     <use xlink:href="#DejaVuSans-Bold-26" x="619.824219"/>
     <use xlink:href="#DejaVuSans-Bold-20" x="707.03125"/>
     <use xlink:href="#DejaVuSans-Bold-4d" x="741.845703"/>
     <use xlink:href="#DejaVuSans-Bold-65" x="841.357422"/>
     <use xlink:href="#DejaVuSans-Bold-6d" x="909.179688"/>
     <use xlink:href="#DejaVuSans-Bold-6f" x="1013.378906"/>
     <use xlink:href="#DejaVuSans-Bold-72" x="1082.080078"/>
     <use xlink:href="#DejaVuSans-Bold-79" x="1131.396484"/>
     <use xlink:href="#DejaVuSans-Bold-20" x="1196.582031"/>
     <use xlink:href="#DejaVuSans-Bold-4c" x="1231.396484"/>
     <use xlink:href="#DejaVuSans-Bold-61" x="1295.117188"/>
     <use xlink:href="#DejaVuSans-Bold-79" x="1359.472656"/>
     <use xlink:href="#DejaVuSans-Bold-65" x="1424.658203"/>
     <use xlink:href="#DejaVuSans-Bold-72" x="1492.480469"/>
    </g>
   </g>
   <g id="text_4">
    <!-- Operational Agency Layer -->
    <g style="fill: #ffffff" transform="translate(215.092275 152.058861) scale(0.12 -0.12)">
     <defs>
      <path id="DejaVuSans-Bold-70" d="M 1656 506 
L 1656 -1331 
L 538 -1331 
L 538 3500 
L 1656 3500 
L 1656 2988 
Q 1888 3294 2169 3439 
Q 2450 3584 2816 3584 
Q 3463 3584 3878 3070 
Q 4294 2556 4294 1747 
Q 4294 938 3878 423 
Q 3463 -91 2816 -91 
Q 2450 -91 2169 54 
Q 1888 200 1656 506 
z
M 2400 2772 
Q 2041 2772 1848 2508 
Q 1656 2244 1656 1747 
Q 1656 1250 1848 986 
Q 2041 722 2400 722 
Q 2759 722 2948 984 
Q 3138 1247 3138 1747 
Q 3138 2247 2948 2509 
Q 2759 2772 2400 2772 
z
" transform="scale(0.015625)"/>
      <path id="DejaVuSans-Bold-6c" d="M 538 4863 
L 1656 4863 
L 1656 0 
L 538 0 
L 538 4863 
z
" transform="scale(0.015625)"/>
     </defs>
     <use xlink:href="#DejaVuSans-Bold-4f"/>
     <use xlink:href="#DejaVuSans-Bold-70" x="85.009766"/>
     <use xlink:href="#DejaVuSans-Bold-65" x="156.591797"/>
     <use xlink:href="#DejaVuSans-Bold-72" x="224.414062"/>
     <use xlink:href="#DejaVuSans-Bold-61" x="273.730469"/>
     <use xlink:href="#DejaVuSans-Bold-74" x="341.210938"/>
     <use xlink:href="#DejaVuSans-Bold-69" x="389.013672"/>
     <use xlink:href="#DejaVuSans-Bold-6f" x="423.291016"/>
     <use xlink:href="#DejaVuSans-Bold-6e" x="491.992188"/>
     <use xlink:href="#DejaVuSans-Bold-61" x="563.183594"/>
     <use xlink:href="#DejaVuSans-Bold-6c" x="630.664062"/>
     <use xlink:href="#DejaVuSans-Bold-20" x="664.941406"/>
     <use xlink:href="#DejaVuSans-Bold-41" x="699.755859"/>
     <use xlink:href="#DejaVuSans-Bold-67" x="777.148438"/>
     <use xlink:href="#DejaVuSans-Bold-65" x="848.730469"/>
     <use xlink:href="#DejaVuSans-Bold-6e" x="916.552734"/>
     <use xlink:href="#DejaVuSans-Bold-63" x="987.744141"/>
     <use xlink:href="#DejaVuSans-Bold-79" x="1047.021484"/>
     <use xlink:href="#DejaVuSans-Bold-20" x="1112.207031"/>
     <use xlink:href="#DejaVuSans-Bold-4c" x="1147.021484"/>
     <use xlink:href="#DejaVuSans-Bold-61" x="1210.742188"/>
     <use xlink:href="#DejaVuSans-Bold-79" x="1275.097656"/>
     <use xlink:href="#DejaVuSans-Bold-65" x="1340.283203"/>
     <use xlink:href="#DejaVuSans-Bold-72" x="1408.105469"/>
    </g>
   </g>
   <g id="text_5">
    <!-- Ethics &amp; Governance Layer -->
    <g style="fill: #ffffff" transform="translate(211.788525 188.315181) scale(0.12 -0.12)">
     <defs>
      <path id="DejaVuSans-Bold-45" d="M 588 4666 
L 3834 4666 
L 3834 3756 
L 1791 3756 
L 1791 2888 
L 3713 2888 
L 3713 1978 
L 1791 1978 
L 1791 909 
L 3903 909 
L 3903 0 
L 588 0 
L 588 4666 
z
" transform="scale(0.015625)"/>
      <path id="DejaVuSans-Bold-68" d="M 4056 2131 
L 4056 0 
L 2931 0 
L 2931 347 
L 2931 1625 
Q 2931 2084 2911 2256 
Q 2891 2428 2841 2509 
Q 2775 2619 2662 2680 
Q 2550 2741 2406 2741 
Q 2056 2741 1856 2470 
Q 1656 2200 1656 1722 
L 1656 0 
L 538 0 
L 538 4863 
L 1656 4863 
L 1656 2988 
Q 1909 3294 2193 3439 
Q 2478 3584 2822 3584 
Q 3428 3584 3742 3212 
Q 4056 2841 4056 2131 
z
" transform="scale(0.015625)"/>
      <path id="DejaVuSans-Bold-47" d="M 4781 347 
Q 4331 128 3847 18 
Q 3363 -91 2847 -91 
Q 1681 -91 1000 561 
Q 319 1213 319 2328 
Q 319 3456 1012 4103 
Q 1706 4750 2913 4750 
Q 3378 4750 3804 4662 
Q 4231 4575 4609 4403 
L 4609 3438 
Q 4219 3659 3833 3768 
Q 3447 3878 3059 3878 
Q 2341 3878 1952 3476 
Q 1563 3075 1563 2328 
Q 1563 1588 1938 1184 
Q 2313 781 3003 781 
Q 3191 781 3352 804 
Q 3513 828 3641 878 
L 3641 1784 
L 2906 1784 
L 2906 2591 
L 4781 2591 
L 4781 347 
z
" transform="scale(0.015625)"/>
      <path id="DejaVuSans-Bold-76" d="M 97 3500 
L 1216 3500 
L 2088 1081 
L 2956 3500 
L 4078 3500 
L 2700 0 
L 1472 0 
L 97 3500 
z
" transform="scale(0.015625)"/>
     </defs>
     <use xlink:href="#DejaVuSans-Bold-45"/>
     <use xlink:href="#DejaVuSans-Bold-74" x="68.310547"/>
     <use xlink:href="#DejaVuSans-Bold-68" x="116.113281"/>
     <use xlink:href="#DejaVuSans-Bold-69" x="187.304688"/>
     <use xlink:href="#DejaVuSans-Bold-63" x="221.582031"/>
     <use xlink:href="#DejaVuSans-Bold-73" x="280.859375"/>
     <use xlink:href="#DejaVuSans-Bold-20" x="340.380859"/>
     <use xlink:href="#DejaVuSans-Bold-26" x="375.195312"/>
     <use xlink:href="#DejaVuSans-Bold-20" x="462.402344"/>
     <use xlink:href="#DejaVuSans-Bold-47" x="497.216797"/>
     <use xlink:href="#DejaVuSans-Bold-6f" x="579.296875"/>
     <use xlink:href="#DejaVuSans-Bold-76" x="647.998047"/>
     <use xlink:href="#DejaVuSans-Bold-65" x="713.183594"/>
     <use xlink:href="#DejaVuSans-Bold-72" x="781.005859"/>
     <use xlink:href="#DejaVuSans-Bold-6e" x="830.322266"/>
     <use xlink:href="#DejaVuSans-Bold-61" x="901.513672"/>
     <use xlink:href="#DejaVuSans-Bold-6e" x="968.994141"/>
     <use xlink:href="#DejaVuSans-Bold-63" x="1040.185547"/>
     <use xlink:href="#DejaVuSans-Bold-65" x="1099.462891"/>
     <use xlink:href="#DejaVuSans-Bold-20" x="1167.285156"/>
     <use xlink:href="#DejaVuSans-Bold-4c" x="1202.099609"/>
     <use xlink:href="#DejaVuSans-Bold-61" x="1265.820312"/>
     <use xlink:href="#DejaVuSans-Bold-79" x="1330.175781"/>
     <use xlink:href="#DejaVuSans-Bold-65" x="1395.361328"/>
     <use xlink:href="#DejaVuSans-Bold-72" x="1463.183594"/>
    </g>
   </g>
   <g id="text_6">
    <!-- Identity Layer -->
    <g style="fill: #ffffff" transform="translate(255.253838 224.571501) scale(0.12 -0.12)">
     <defs>
      <path id="DejaVuSans-Bold-64" d="M 2919 2988 
L 2919 4863 
L 4044 4863 
L 4044 0 
L 2919 0 
L 2919 506 
Q 2688 197 2409 53 
Q 2131 -91 1766 -91 
Q 1119 -91 703 423 
Q 288 938 288 1747 
Q 288 2556 703 3070 
Q 1119 3584 1766 3584 
Q 2128 3584 2408 3439 
Q 2688 3294 2919 2988 
z
M 2181 722 
Q 2541 722 2730 984 
Q 2919 1247 2919 1747 
Q 2919 2247 2730 2509 
Q 2541 2772 2181 2772 
Q 1825 2772 1636 2509 
Q 1447 2247 1447 1747 
Q 1447 1247 1636 984 
Q 1825 722 2181 722 
z
" transform="scale(0.015625)"/>
     </defs>
     <use xlink:href="#DejaVuSans-Bold-49"/>
     <use xlink:href="#DejaVuSans-Bold-64" x="37.207031"/>
     <use xlink:href="#DejaVuSans-Bold-65" x="108.789062"/>
     <use xlink:href="#DejaVuSans-Bold-6e" x="176.611328"/>
     <use xlink:href="#DejaVuSans-Bold-74" x="247.802734"/>
     <use xlink:href="#DejaVuSans-Bold-69" x="295.605469"/>
     <use xlink:href="#DejaVuSans-Bold-74" x="329.882812"/>
     <use xlink:href="#DejaVuSans-Bold-79" x="377.685547"/>
     <use xlink:href="#DejaVuSans-Bold-20" x="442.871094"/>
     <use xlink:href="#DejaVuSans-Bold-4c" x="477.685547"/>
     <use xlink:href="#DejaVuSans-Bold-61" x="541.40625"/>
     <use xlink:href="#DejaVuSans-Bold-79" x="605.761719"/>
     <use xlink:href="#DejaVuSans-Bold-65" x="670.947266"/>
     <use xlink:href="#DejaVuSans-Bold-72" x="738.769531"/>
    </g>
   </g>
   <g id="text_7">
    <!-- Standards Bodies -->
    <g transform="translate(172.969594 48.884851) scale(0.12 -0.12)">
     <defs>
      <path id="DejaVuSans-53" d="M 3425 4513 
L 3425 3897 
Q 3066 4069 2747 4153 
Q 2428 4238 2131 4238 
Q 1616 4238 1336 4038 
Q 1056 3838 1056 3469 
Q 1056 3159 1242 3001 
Q 1428 2844 1947 2747 
L 2328 2669 
Q 3034 2534 3370 2195 
Q 3706 1856 3706 1288 
Q 3706 609 3251 259 
Q 2797 -91 1919 -91 
Q 1588 -91 1214 -16 
Q 841 59 441 206 
L 441 856 
Q 825 641 1194 531 
Q 1563 422 1919 422 
Q 2459 422 2753 634 
Q 3047 847 3047 1241 
Q 3047 1584 2836 1778 
Q 2625 1972 2144 2069 
L 1759 2144 
Q 1053 2284 737 2584 
Q 422 2884 422 3419 
Q 422 4038 858 4394 
Q 1294 4750 2059 4750 
Q 2388 4750 2728 4690 
Q 3069 4631 3425 4513 
z
" transform="scale(0.015625)"/>
      <path id="DejaVuSans-74" d="M 1172 4494 
L 1172 3500 
L 2356 3500 
L 2356 3053 
L 1172 3053 
L 1172 1153 
Q 1172 725 1289 603 
Q 1406 481 1766 481 
L 2356 481 
L 2356 0 
L 1766 0 
Q 1100 0 847 248 
Q 594 497 594 1153 
L 594 3053 
L 172 3053 
L 172 3500 
L 594 3500 
L 594 4494 
L 1172 4494 
z
" transform="scale(0.015625)"/>
      <path id="DejaVuSans-61" d="M 2194 1759 
Q 1497 1759 1228 1600 
Q 959 1441 959 1056 
Q 959 750 1161 570 
Q 1363 391 1709 391 
Q 2188 391 2477 730 
Q 2766 1069 2766 1631 
L 2766 1759 
L 2194 1759 
z
M 3341 1997 
L 3341 0 
L 2766 0 
L 2766 531 
Q 2569 213 2275 61 
Q 1981 -91 1556 -91 
Q 1019 -91 701 211 
Q 384 513 384 1019 
Q 384 1609 779 1909 
Q 1175 2209 1959 2209 
L 2766 2209 
L 2766 2266 
Q 2766 2663 2505 2880 
Q 2244 3097 1772 3097 
Q 1472 3097 1187 3025 
Q 903 2953 641 2809 
L 641 3341 
Q 956 3463 1253 3523 
Q 1550 3584 1831 3584 
Q 2591 3584 2966 3190 
Q 3341 2797 3341 1997 
z
" transform="scale(0.015625)"/>
      <path id="DejaVuSans-6e" d="M 3513 2113 
L 3513 0 
L 2938 0 
L 2938 2094 
Q 2938 2591 2744 2837 
Q 2550 3084 2163 3084 
Q 1697 3084 1428 2787 
Q 1159 2491 1159 1978 
L 1159 0 
L 581 0 
L 581 3500 
L 1159 3500 
L 1159 2956 
Q 1366 3272 1645 3428 
Q 1925 3584 2291 3584 
Q 2894 3584 3203 3211 
Q 3513 2838 3513 2113 
z
" transform="scale(0.015625)"/>
      <path id="DejaVuSans-64" d="M 2906 2969 
L 2906 4863 
L 3481 4863 
L 3481 0 
L 2906 0 
L 2906 525 
Q 2725 213 2448 61 
Q 2172 -91 1784 -91 
Q 1150 -91 751 415 
Q 353 922 353 1747 
Q 353 2572 751 3078 
Q 1150 3584 1784 3584 
Q 2172 3584 2448 3432 
Q 2725 3281 2906 2969 
z
M 947 1747 
Q 947 1113 1208 752 
Q 1469 391 1925 391 
Q 2381 391 2643 752 
Q 2906 1113 2906 1747 
Q 2906 2381 2643 2742 
Q 2381 3103 1925 3103 
Q 1469 3103 1208 2742 
Q 947 2381 947 1747 
z
" transform="scale(0.015625)"/>
      <path id="DejaVuSans-72" d="M 2631 2963 
Q 2534 3019 2420 3045 
Q 2306 3072 2169 3072 
Q 1681 3072 1420 2755 
Q 1159 2438 1159 1844 
L 1159 0 
L 581 0 
L 581 3500 
L 1159 3500 
L 1159 2956 
Q 1341 3275 1631 3429 
Q 1922 3584 2338 3584 
Q 2397 3584 2469 3576 
Q 2541 3569 2628 3553 
L 2631 2963 
z
" transform="scale(0.015625)"/>
      <path id="DejaVuSans-73" d="M 2834 3397 
L 2834 2853 
Q 2591 2978 2328 3040 
Q 2066 3103 1784 3103 
Q 1356 3103 1142 2972 
Q 928 2841 928 2578 
Q 928 2378 1081 2264 
Q 1234 2150 1697 2047 
L 1894 2003 
Q 2506 1872 2764 1633 
Q 3022 1394 3022 966 
Q 3022 478 2636 193 
Q 2250 -91 1575 -91 
Q 1294 -91 989 -36 
Q 684 19 347 128 
L 347 722 
Q 666 556 975 473 
Q 1284 391 1588 391 
Q 1994 391 2212 530 
Q 2431 669 2431 922 
Q 2431 1156 2273 1281 
Q 2116 1406 1581 1522 
L 1381 1569 
Q 847 1681 609 1914 
Q 372 2147 372 2553 
Q 372 3047 722 3315 
Q 1072 3584 1716 3584 
Q 2034 3584 2315 3537 
Q 2597 3491 2834 3397 
z
" transform="scale(0.015625)"/>
      <path id="DejaVuSans-20" transform="scale(0.015625)"/>
      <path id="DejaVuSans-42" d="M 1259 2228 
L 1259 519 
L 2272 519 
Q 2781 519 3026 730 
Q 3272 941 3272 1375 
Q 3272 1813 3026 2020 
Q 2781 2228 2272 2228 
L 1259 2228 
z
M 1259 4147 
L 1259 2741 
L 2194 2741 
Q 2656 2741 2882 2914 
Q 3109 3088 3109 3444 
Q 3109 3797 2882 3972 
Q 2656 4147 2194 4147 
L 1259 4147 
z
M 628 4666 
L 2241 4666 
Q 2963 4666 3353 4366 
Q 3744 4066 3744 3513 
Q 3744 3084 3544 2831 
Q 3344 2578 2956 2516 
Q 3422 2416 3680 2098 
Q 3938 1781 3938 1306 
Q 3938 681 3513 340 
Q 3088 0 2303 0 
L 628 0 
L 628 4666 
z
" transform="scale(0.015625)"/>
      <path id="DejaVuSans-6f" d="M 1959 3097 
Q 1497 3097 1228 2736 
Q 959 2375 959 1747 
Q 959 1119 1226 758 
Q 1494 397 1959 397 
Q 2419 397 2687 759 
Q 2956 1122 2956 1747 
Q 2956 2369 2687 2733 
Q 2419 3097 1959 3097 
z
M 1959 3584 
Q 2709 3584 3137 3096 
Q 3566 2609 3566 1747 
Q 3566 888 3137 398 
Q 2709 -91 1959 -91 
Q 1206 -91 779 398 
Q 353 888 353 1747 
Q 353 2609 779 3096 
Q 1206 3584 1959 3584 
z
" transform="scale(0.015625)"/>
      <path id="DejaVuSans-69" d="M 603 3500 
L 1178 3500 
L 1178 0 
L 603 0 
L 603 3500 
z
M 603 4863 
L 1178 4863 
L 1178 4134 
L 603 4134 
L 603 4863 
z
" transform="scale(0.015625)"/>
      <path id="DejaVuSans-65" d="M 3597 1894 
L 3597 1613 
L 953 1613 
Q 991 1019 1311 708 
Q 1631 397 2203 397 
Q 2534 397 2845 478 
Q 3156 559 3463 722 
L 3463 178 
Q 3153 47 2828 -22 
Q 2503 -91 2169 -91 
Q 1331 -91 842 396 
Q 353 884 353 1716 
Q 353 2575 817 3079 
Q 1281 3584 2069 3584 
Q 2775 3584 3186 3129 
Q 3597 2675 3597 1894 
z
M 3022 2063 
Q 3016 2534 2758 2815 
Q 2500 3097 2075 3097 
Q 1594 3097 1305 2825 
Q 1016 2553 972 2059 
L 3022 2063 
z
" transform="scale(0.015625)"/>
     </defs>
     <use xlink:href="#DejaVuSans-53"/>
     <use xlink:href="#DejaVuSans-74" x="63.476562"/>
     <use xlink:href="#DejaVuSans-61" x="102.685547"/>
     <use xlink:href="#DejaVuSans-6e" x="163.964844"/>
     <use xlink:href="#DejaVuSans-64" x="227.34375"/>
     <use xlink:href="#DejaVuSans-61" x="290.820312"/>
     <use xlink:href="#DejaVuSans-72" x="352.099609"/>
     <use xlink:href="#DejaVuSans-64" x="391.462891"/>
     <use xlink:href="#DejaVuSans-73" x="454.939453"/>
     <use xlink:href="#DejaVuSans-20" x="507.039062"/>
     <use xlink:href="#DejaVuSans-42" x="538.826172"/>
     <use xlink:href="#DejaVuSans-6f" x="607.429688"/>
     <use xlink:href="#DejaVuSans-64" x="668.611328"/>
     <use xlink:href="#DejaVuSans-69" x="732.087891"/>
     <use xlink:href="#DejaVuSans-65" x="759.871094"/>
     <use xlink:href="#DejaVuSans-73" x="821.394531"/>
    </g>
   </g>
   <g id="text_8">
    <!-- Legal Analogues -->
    <g transform="translate(426.013605 115.865102) scale(0.12 -0.12)">
     <defs>
      <path id="DejaVuSans-4c" d="M 628 4666 
L 1259 4666 
L 1259 531 
L 3531 531 
L 3531 0 
L 628 0 
L 628 4666 
z
" transform="scale(0.015625)"/>
      <path id="DejaVuSans-67" d="M 2906 1791 
Q 2906 2416 2648 2759 
Q 2391 3103 1925 3103 
Q 1463 3103 1205 2759 
Q 947 2416 947 1791 
Q 947 1169 1205 825 
Q 1463 481 1925 481 
Q 2391 481 2648 825 
Q 2906 1169 2906 1791 
z
M 3481 434 
Q 3481 -459 3084 -895 
Q 2688 -1331 1869 -1331 
Q 1566 -1331 1297 -1286 
Q 1028 -1241 775 -1147 
L 775 -588 
Q 1028 -725 1275 -790 
Q 1522 -856 1778 -856 
Q 2344 -856 2625 -561 
Q 2906 -266 2906 331 
L 2906 616 
Q 2728 306 2450 153 
Q 2172 0 1784 0 
Q 1141 0 747 490 
Q 353 981 353 1791 
Q 353 2603 747 3093 
Q 1141 3584 1784 3584 
Q 2172 3584 2450 3431 
Q 2728 3278 2906 2969 
L 2906 3500 
L 3481 3500 
L 3481 434 
z
" transform="scale(0.015625)"/>
      <path id="DejaVuSans-6c" d="M 603 4863 
L 1178 4863 
L 1178 0 
L 603 0 
L 603 4863 
z
" transform="scale(0.015625)"/>
      <path id="DejaVuSans-41" d="M 2188 4044 
L 1331 1722 
L 3047 1722 
L 2188 4044 
z
M 1831 4666 
L 2547 4666 
L 4325 0 
L 3669 0 
L 3244 1197 
L 1141 1197 
L 716 0 
L 50 0 
L 1831 4666 
z
" transform="scale(0.015625)"/>
      <path id="DejaVuSans-75" d="M 544 1381 
L 544 3500 
L 1119 3500 
L 1119 1403 
Q 1119 906 1312 657 
Q 1506 409 1894 409 
Q 2359 409 2629 706 
Q 2900 1003 2900 1516 
L 2900 3500 
L 3475 3500 
L 3475 0 
L 2900 0 
L 2900 538 
Q 2691 219 2414 64 
Q 2138 -91 1772 -91 
Q 1169 -91 856 284 
Q 544 659 544 1381 
z
M 1991 3584 
L 1991 3584 
z
" transform="scale(0.015625)"/>
     </defs>
     <use xlink:href="#DejaVuSans-4c"/>
     <use xlink:href="#DejaVuSans-65" x="53.962891"/>
     <use xlink:href="#DejaVuSans-67" x="115.486328"/>
     <use xlink:href="#DejaVuSans-61" x="178.962891"/>
     <use xlink:href="#DejaVuSans-6c" x="240.242188"/>
     <use xlink:href="#DejaVuSans-20" x="268.025391"/>
     <use xlink:href="#DejaVuSans-41" x="299.8125"/>
     <use xlink:href="#DejaVuSans-6e" x="368.220703"/>
     <use xlink:href="#DejaVuSans-61" x="431.599609"/>
     <use xlink:href="#DejaVuSans-6c" x="492.878906"/>
     <use xlink:href="#DejaVuSans-6f" x="520.662109"/>
     <use xlink:href="#DejaVuSans-67" x="581.84375"/>
     <use xlink:href="#DejaVuSans-75" x="645.320312"/>
     <use xlink:href="#DejaVuSans-65" x="708.699219"/>
     <use xlink:href="#DejaVuSans-73" x="770.222656"/>
    </g>
   </g>
   <g id="text_9">
    <!-- Gating Criteria -->
    <g transform="translate(431.313293 405.88429) scale(0.12 -0.12)">
     <defs>
      <path id="DejaVuSans-47" d="M 3809 666 
L 3809 1919 
L 2778 1919 
L 2778 2438 
L 4434 2438 
L 4434 434 
Q 4069 175 3628 42 
Q 3188 -91 2688 -91 
Q 1594 -91 976 548 
Q 359 1188 359 2328 
Q 359 3472 976 4111 
Q 1594 4750 2688 4750 
Q 3144 4750 3555 4637 
Q 3966 4525 4313 4306 
L 4313 3634 
Q 3963 3931 3569 4081 
Q 3175 4231 2741 4231 
Q 1884 4231 1454 3753 
Q 1025 3275 1025 2328 
Q 1025 1384 1454 906 
Q 1884 428 2741 428 
Q 3075 428 3337 486 
Q 3600 544 3809 666 
z
" transform="scale(0.015625)"/>
      <path id="DejaVuSans-43" d="M 4122 4306 
L 4122 3641 
Q 3803 3938 3442 4084 
Q 3081 4231 2675 4231 
Q 1875 4231 1450 3742 
Q 1025 3253 1025 2328 
Q 1025 1406 1450 917 
Q 1875 428 2675 428 
Q 3081 428 3442 575 
Q 3803 722 4122 1019 
L 4122 359 
Q 3791 134 3420 21 
Q 3050 -91 2638 -91 
Q 1578 -91 968 557 
Q 359 1206 359 2328 
Q 359 3453 968 4101 
Q 1578 4750 2638 4750 
Q 3056 4750 3426 4639 
Q 3797 4528 4122 4306 
z
" transform="scale(0.015625)"/>
     </defs>
     <use xlink:href="#DejaVuSans-47"/>
     <use xlink:href="#DejaVuSans-61" x="77.490234"/>
     <use xlink:href="#DejaVuSans-74" x="138.769531"/>
     <use xlink:href="#DejaVuSans-69" x="177.978516"/>
     <use xlink:href="#DejaVuSans-6e" x="205.761719"/>
     <use xlink:href="#DejaVuSans-67" x="269.140625"/>
     <use xlink:href="#DejaVuSans-20" x="332.617188"/>
     <use xlink:href="#DejaVuSans-43" x="364.404297"/>
     <use xlink:href="#DejaVuSans-72" x="434.228516"/>
     <use xlink:href="#DejaVuSans-69" x="475.341797"/>
     <use xlink:href="#DejaVuSans-74" x="503.125"/>
     <use xlink:href="#DejaVuSans-65" x="542.333984"/>
     <use xlink:href="#DejaVuSans-72" x="603.857422"/>
     <use xlink:href="#DejaVuSans-69" x="644.970703"/>
     <use xlink:href="#DejaVuSans-61" x="672.753906"/>
    </g>
   </g>
   <g id="text_10">
    <!-- Interoperability Frameworks -->
    <g transform="translate(141.156469 472.864541) scale(0.12 -0.12)">
     <defs>
      <path id="DejaVuSans-49" d="M 628 4666 
L 1259 4666 
L 1259 0 
L 628 0 
L 628 4666 
z
" transform="scale(0.015625)"/>
      <path id="DejaVuSans-70" d="M 1159 525 
L 1159 -1331 
L 581 -1331 
L 581 3500 
L 1159 3500 
L 1159 2969 
Q 1341 3281 1617 3432 
Q 1894 3584 2278 3584 
Q 2916 3584 3314 3078 
Q 3713 2572 3713 1747 
Q 3713 922 3314 415 
Q 2916 -91 2278 -91 
Q 1894 -91 1617 61 
Q 1341 213 1159 525 
z
M 3116 1747 
Q 3116 2381 2855 2742 
Q 2594 3103 2138 3103 
Q 1681 3103 1420 2742 
Q 1159 2381 1159 1747 
Q 1159 1113 1420 752 
Q 1681 391 2138 391 
Q 2594 391 2855 752 
Q 3116 1113 3116 1747 
z
" transform="scale(0.015625)"/>
      <path id="DejaVuSans-62" d="M 3116 1747 
Q 3116 2381 2855 2742 
Q 2594 3103 2138 3103 
Q 1681 3103 1420 2742 
Q 1159 2381 1159 1747 
Q 1159 1113 1420 752 
Q 1681 391 2138 391 
Q 2594 391 2855 752 
Q 3116 1113 3116 1747 
z
M 1159 2969 
Q 1341 3281 1617 3432 
Q 1894 3584 2278 3584 
Q 2916 3584 3314 3078 
Q 3713 2572 3713 1747 
Q 3713 922 3314 415 
Q 2916 -91 2278 -91 
Q 1894 -91 1617 61 
Q 1341 213 1159 525 
L 1159 0 
L 581 0 
L 581 4863 
L 1159 4863 
L 1159 2969 
z
" transform="scale(0.015625)"/>
      <path id="DejaVuSans-79" d="M 2059 -325 
Q 1816 -950 1584 -1140 
Q 1353 -1331 966 -1331 
L 506 -1331 
L 506 -850 
L 844 -850 
Q 1081 -850 1212 -737 
Q 1344 -625 1503 -206 
L 1606 56 
L 191 3500 
L 800 3500 
L 1894 763 
L 2988 3500 
L 3597 3500 
L 2059 -325 
z
" transform="scale(0.015625)"/>
      <path id="DejaVuSans-46" d="M 628 4666 
L 3309 4666 
L 3309 4134 
L 1259 4134 
L 1259 2759 
L 3109 2759 
L 3109 2228 
L 1259 2228 
L 1259 0 
L 628 0 
L 628 4666 
z
" transform="scale(0.015625)"/>
      <path id="DejaVuSans-6d" d="M 3328 2828 
Q 3544 3216 3844 3400 
Q 4144 3584 4550 3584 
Q 5097 3584 5394 3201 
Q 5691 2819 5691 2113 
L 5691 0 
L 5113 0 
L 5113 2094 
Q 5113 2597 4934 2840 
Q 4756 3084 4391 3084 
Q 3944 3084 3684 2787 
Q 3425 2491 3425 1978 
L 3425 0 
L 2847 0 
L 2847 2094 
Q 2847 2600 2669 2842 
Q 2491 3084 2119 3084 
Q 1678 3084 1418 2786 
Q 1159 2488 1159 1978 
L 1159 0 
L 581 0 
L 581 3500 
L 1159 3500 
L 1159 2956 
Q 1356 3278 1631 3431 
Q 1906 3584 2284 3584 
Q 2666 3584 2933 3390 
Q 3200 3197 3328 2828 
z
" transform="scale(0.015625)"/>
      <path id="DejaVuSans-77" d="M 269 3500 
L 844 3500 
L 1563 769 
L 2278 3500 
L 2956 3500 
L 3675 769 
L 4391 3500 
L 4966 3500 
L 4050 0 
L 3372 0 
L 2619 2869 
L 1863 0 
L 1184 0 
L 269 3500 
z
" transform="scale(0.015625)"/>
      <path id="DejaVuSans-6b" d="M 581 4863 
L 1159 4863 
L 1159 1991 
L 2875 3500 
L 3609 3500 
L 1753 1863 
L 3688 0 
L 2938 0 
L 1159 1709 
L 1159 0 
L 581 0 
L 581 4863 
z
" transform="scale(0.015625)"/>
     </defs>
     <use xlink:href="#DejaVuSans-49"/>
     <use xlink:href="#DejaVuSans-6e" x="29.492188"/>
     <use xlink:href="#DejaVuSans-74" x="92.871094"/>
     <use xlink:href="#DejaVuSans-65" x="132.080078"/>
     <use xlink:href="#DejaVuSans-72" x="193.603516"/>
     <use xlink:href="#DejaVuSans-6f" x="232.466797"/>
     <use xlink:href="#DejaVuSans-70" x="293.648438"/>
     <use xlink:href="#DejaVuSans-65" x="357.125"/>
     <use xlink:href="#DejaVuSans-72" x="418.648438"/>
     <use xlink:href="#DejaVuSans-61" x="459.761719"/>
     <use xlink:href="#DejaVuSans-62" x="521.041016"/>
     <use xlink:href="#DejaVuSans-69" x="584.517578"/>
     <use xlink:href="#DejaVuSans-6c" x="612.300781"/>
     <use xlink:href="#DejaVuSans-69" x="640.083984"/>
     <use xlink:href="#DejaVuSans-74" x="667.867188"/>
     <use xlink:href="#DejaVuSans-79" x="707.076172"/>
     <use xlink:href="#DejaVuSans-20" x="766.255859"/>
     <use xlink:href="#DejaVuSans-46" x="798.042969"/>
     <use xlink:href="#DejaVuSans-72" x="848.3125"/>
     <use xlink:href="#DejaVuSans-61" x="889.425781"/>
     <use xlink:href="#DejaVuSans-6d" x="950.705078"/>
     <use xlink:href="#DejaVuSans-65" x="1048.117188"/>
     <use xlink:href="#DejaVuSans-77" x="1109.640625"/>
     <use xlink:href="#DejaVuSans-6f" x="1191.427734"/>
     <use xlink:href="#DejaVuSans-72" x="1252.609375"/>
     <use xlink:href="#DejaVuSans-6b" x="1293.722656"/>
     <use xlink:href="#DejaVuSans-73" x="1351.632812"/>
    </g>
   </g>
   <g id="text_11">
    <!-- Global Governance Orgs -->
    <g transform="translate(7.2 221.700556) scale(0.12 -0.12)">
     <defs>
      <path id="DejaVuSans-76" d="M 191 3500 
L 800 3500 
L 1894 563 
L 2988 3500 
L 3597 3500 
L 2284 0 
L 1503 0 
L 191 3500 
z
" transform="scale(0.015625)"/>
      <path id="DejaVuSans-63" d="M 3122 3366 
L 3122 2828 
Q 2878 2963 2633 3030 
Q 2388 3097 2138 3097 
Q 1578 3097 1268 2742 
Q 959 2388 959 1747 
Q 959 1106 1268 751 
Q 1578 397 2138 397 
Q 2388 397 2633 464 
Q 2878 531 3122 666 
L 3122 134 
Q 2881 22 2623 -34 
Q 2366 -91 2075 -91 
Q 1284 -91 818 406 
Q 353 903 353 1747 
Q 353 2603 823 3093 
Q 1294 3584 2113 3584 
Q 2378 3584 2631 3529 
Q 2884 3475 3122 3366 
z
" transform="scale(0.015625)"/>
      <path id="DejaVuSans-4f" d="M 2522 4238 
Q 1834 4238 1429 3725 
Q 1025 3213 1025 2328 
Q 1025 1447 1429 934 
Q 1834 422 2522 422 
Q 3209 422 3611 934 
Q 4013 1447 4013 2328 
Q 4013 3213 3611 3725 
Q 3209 4238 2522 4238 
z
M 2522 4750 
Q 3503 4750 4090 4092 
Q 4678 3434 4678 2328 
Q 4678 1225 4090 567 
Q 3503 -91 2522 -91 
Q 1538 -91 948 565 
Q 359 1222 359 2328 
Q 359 3434 948 4092 
Q 1538 4750 2522 4750 
z
" transform="scale(0.015625)"/>
     </defs>
     <use xlink:href="#DejaVuSans-47"/>
     <use xlink:href="#DejaVuSans-6c" x="77.490234"/>
     <use xlink:href="#DejaVuSans-6f" x="105.273438"/>
     <use xlink:href="#DejaVuSans-62" x="166.455078"/>
     <use xlink:href="#DejaVuSans-61" x="229.931641"/>
     <use xlink:href="#DejaVuSans-6c" x="291.210938"/>
     <use xlink:href="#DejaVuSans-20" x="318.994141"/>
     <use xlink:href="#DejaVuSans-47" x="350.78125"/>
     <use xlink:href="#DejaVuSans-6f" x="428.271484"/>
     <use xlink:href="#DejaVuSans-76" x="489.453125"/>
     <use xlink:href="#DejaVuSans-65" x="548.632812"/>
     <use xlink:href="#DejaVuSans-72" x="610.15625"/>
     <use xlink:href="#DejaVuSans-6e" x="649.519531"/>
     <use xlink:href="#DejaVuSans-61" x="712.898438"/>
     <use xlink:href="#DejaVuSans-6e" x="774.177734"/>
     <use xlink:href="#DejaVuSans-63" x="837.556641"/>
     <use xlink:href="#DejaVuSans-65" x="892.537109"/>
     <use xlink:href="#DejaVuSans-20" x="954.060547"/>
     <use xlink:href="#DejaVuSans-4f" x="985.847656"/>
     <use xlink:href="#DejaVuSans-72" x="1064.558594"/>
     <use xlink:href="#DejaVuSans-67" x="1103.921875"/>
     <use xlink:href="#DejaVuSans-73" x="1167.398438"/>
    </g>
   </g>
  </g>
 </g>
 <defs>
  <clipPath id="pd118e66a02">
   <rect x="77.853435" y="35.997045" width="446.4" height="443.132802"/>
  </clipPath>
 </defs>
</svg>
